<mxfile host="app.diagrams.net" modified="2021-05-11T13:54:41.424Z" agent="5.0 (Windows NT 10.0; Win64; x64) AppleWebKit/537.36 (KHTML, like Gecko) Chrome/90.0.4430.93 Safari/537.36" etag="h8cXrJcwIP9RwA7KR8D2" version="14.6.11" type="github">
  <diagram id="C5RBs43oDa-KdzZeNtuy" name="Page-1">
    <mxGraphModel dx="1460" dy="623" grid="1" gridSize="10" guides="1" tooltips="1" connect="1" arrows="1" fold="1" page="1" pageScale="1" pageWidth="827" pageHeight="1169" math="0" shadow="0">
      <root>
        <mxCell id="WIyWlLk6GJQsqaUBKTNV-0" />
        <mxCell id="WIyWlLk6GJQsqaUBKTNV-1" parent="WIyWlLk6GJQsqaUBKTNV-0" />
        <mxCell id="WIyWlLk6GJQsqaUBKTNV-3" value="start" style="rounded=1;whiteSpace=wrap;html=1;fontSize=16;glass=0;strokeWidth=1;shadow=0;" parent="WIyWlLk6GJQsqaUBKTNV-1" vertex="1">
          <mxGeometry x="340" y="120" width="60" height="40" as="geometry" />
        </mxCell>
        <mxCell id="WIyWlLk6GJQsqaUBKTNV-4" value="Yes" style="rounded=0;html=1;jettySize=auto;orthogonalLoop=1;fontSize=16;endArrow=block;endFill=0;endSize=8;strokeWidth=1;shadow=0;labelBackgroundColor=none;edgeStyle=orthogonalEdgeStyle;" parent="WIyWlLk6GJQsqaUBKTNV-1" source="WIyWlLk6GJQsqaUBKTNV-6" target="WIyWlLk6GJQsqaUBKTNV-10" edge="1">
          <mxGeometry y="20" relative="1" as="geometry">
            <mxPoint as="offset" />
          </mxGeometry>
        </mxCell>
        <mxCell id="WIyWlLk6GJQsqaUBKTNV-5" value="No" style="edgeStyle=orthogonalEdgeStyle;rounded=0;html=1;jettySize=auto;orthogonalLoop=1;fontSize=16;endArrow=block;endFill=0;endSize=8;strokeWidth=1;shadow=0;labelBackgroundColor=none;" parent="WIyWlLk6GJQsqaUBKTNV-1" source="WIyWlLk6GJQsqaUBKTNV-6" target="WIyWlLk6GJQsqaUBKTNV-7" edge="1">
          <mxGeometry y="10" relative="1" as="geometry">
            <mxPoint as="offset" />
          </mxGeometry>
        </mxCell>
        <mxCell id="WIyWlLk6GJQsqaUBKTNV-6" value="a != 0" style="rhombus;whiteSpace=wrap;html=1;shadow=0;fontFamily=Helvetica;fontSize=16;align=center;strokeWidth=1;spacing=6;spacingTop=-4;" parent="WIyWlLk6GJQsqaUBKTNV-1" vertex="1">
          <mxGeometry x="320" y="290" width="100" height="50" as="geometry" />
        </mxCell>
        <mxCell id="WIyWlLk6GJQsqaUBKTNV-7" value="&lt;span style=&quot;color: rgb(51 , 51 , 51) ; font-family: &amp;#34;arial&amp;#34; , sans-serif ; font-size: 13px ; background-color: rgb(255 , 255 , 255)&quot;&gt;not a Quadratic Equation&lt;/span&gt;" style="rounded=0;whiteSpace=wrap;html=1;fontSize=16;glass=0;strokeWidth=1;shadow=0;" parent="WIyWlLk6GJQsqaUBKTNV-1" vertex="1">
          <mxGeometry x="560" y="295" width="170" height="40" as="geometry" />
        </mxCell>
        <mxCell id="WIyWlLk6GJQsqaUBKTNV-8" value="No" style="rounded=0;html=1;jettySize=auto;orthogonalLoop=1;fontSize=16;endArrow=block;endFill=0;endSize=8;strokeWidth=1;shadow=0;labelBackgroundColor=none;edgeStyle=orthogonalEdgeStyle;" parent="WIyWlLk6GJQsqaUBKTNV-1" source="WIyWlLk6GJQsqaUBKTNV-10" target="vbxx1KznmS1wmp12UJdr-1" edge="1">
          <mxGeometry x="0.3333" y="20" relative="1" as="geometry">
            <mxPoint as="offset" />
          </mxGeometry>
        </mxCell>
        <mxCell id="WIyWlLk6GJQsqaUBKTNV-9" value="Yes&lt;br&gt;" style="edgeStyle=orthogonalEdgeStyle;rounded=0;html=1;jettySize=auto;orthogonalLoop=1;fontSize=16;endArrow=block;endFill=0;endSize=8;strokeWidth=1;shadow=0;labelBackgroundColor=none;exitX=0;exitY=0.5;exitDx=0;exitDy=0;" parent="WIyWlLk6GJQsqaUBKTNV-1" source="WIyWlLk6GJQsqaUBKTNV-10" target="WIyWlLk6GJQsqaUBKTNV-12" edge="1">
          <mxGeometry y="30" relative="1" as="geometry">
            <mxPoint as="offset" />
          </mxGeometry>
        </mxCell>
        <mxCell id="WIyWlLk6GJQsqaUBKTNV-10" value="Math.abs(a) != 1" style="rhombus;whiteSpace=wrap;html=1;shadow=0;fontFamily=Helvetica;fontSize=16;align=center;strokeWidth=1;spacing=6;spacingTop=-4;" parent="WIyWlLk6GJQsqaUBKTNV-1" vertex="1">
          <mxGeometry x="280" y="370" width="180" height="80" as="geometry" />
        </mxCell>
        <mxCell id="WIyWlLk6GJQsqaUBKTNV-11" value="&lt;div style=&quot;background-color: rgb(255 , 255 , 255) ; font-family: &amp;#34;consolas&amp;#34; , &amp;#34;courier new&amp;#34; , monospace ; font-size: 14px ; line-height: 19px&quot;&gt;&amp;nbsp;&lt;span style=&quot;color: #001080&quot;&gt;equation&lt;/span&gt;.&lt;span style=&quot;color: #795e26&quot;&gt;append&lt;/span&gt;(&lt;span style=&quot;color: #a31515&quot;&gt;&quot;-&quot;&lt;/span&gt;);&lt;/div&gt;" style="rounded=0;whiteSpace=wrap;html=1;fontSize=16;glass=0;strokeWidth=1;shadow=0;" parent="WIyWlLk6GJQsqaUBKTNV-1" vertex="1">
          <mxGeometry x="450" y="480" width="200" height="40" as="geometry" />
        </mxCell>
        <mxCell id="WIyWlLk6GJQsqaUBKTNV-12" value="&lt;div style=&quot;background-color: rgb(255 , 255 , 255) ; font-family: &amp;#34;consolas&amp;#34; , &amp;#34;courier new&amp;#34; , monospace ; font-size: 14px ; line-height: 19px&quot;&gt;&lt;p&gt;&lt;span style=&quot;color: #001080&quot;&gt;equation&lt;/span&gt;.&lt;span style=&quot;color: #795e26&quot;&gt;append&lt;/span&gt;(&lt;span style=&quot;color: #795e26&quot;&gt;format&lt;/span&gt;(&lt;span style=&quot;color: #001080&quot;&gt;a&lt;/span&gt;));&lt;br&gt;&lt;/p&gt;&lt;/div&gt;" style="rounded=0;whiteSpace=wrap;html=1;fontSize=16;glass=0;strokeWidth=1;shadow=0;" parent="WIyWlLk6GJQsqaUBKTNV-1" vertex="1">
          <mxGeometry x="130" y="480" width="240" height="40" as="geometry" />
        </mxCell>
        <mxCell id="vbxx1KznmS1wmp12UJdr-1" value="a &amp;lt; 0" style="rhombus;whiteSpace=wrap;html=1;fontSize=16;" parent="WIyWlLk6GJQsqaUBKTNV-1" vertex="1">
          <mxGeometry x="490" y="390" width="120" height="40" as="geometry" />
        </mxCell>
        <mxCell id="vbxx1KznmS1wmp12UJdr-2" value="b != 0" style="rhombus;whiteSpace=wrap;html=1;fontSize=16;" parent="WIyWlLk6GJQsqaUBKTNV-1" vertex="1">
          <mxGeometry x="300" y="630" width="140" height="55" as="geometry" />
        </mxCell>
        <mxCell id="vbxx1KznmS1wmp12UJdr-6" value="&lt;div style=&quot;background-color: rgb(255 , 255 , 255) ; font-family: &amp;#34;consolas&amp;#34; , &amp;#34;courier new&amp;#34; , monospace ; font-size: 14px ; line-height: 19px&quot;&gt;&lt;span style=&quot;color: #001080&quot;&gt;equation&lt;/span&gt;.&lt;span style=&quot;color: #795e26&quot;&gt;append&lt;/span&gt;(&lt;span style=&quot;color: #a31515&quot;&gt;&quot;xÂ²&quot;&lt;/span&gt;);&lt;/div&gt;" style="rounded=0;whiteSpace=wrap;html=1;fontSize=16;glass=0;strokeWidth=1;shadow=0;" parent="WIyWlLk6GJQsqaUBKTNV-1" vertex="1">
          <mxGeometry x="290" y="570" width="200" height="40" as="geometry" />
        </mxCell>
        <mxCell id="vbxx1KznmS1wmp12UJdr-13" value="b &amp;gt; 0" style="rhombus;whiteSpace=wrap;html=1;fontSize=16;" parent="WIyWlLk6GJQsqaUBKTNV-1" vertex="1">
          <mxGeometry x="300" y="735" width="140" height="40" as="geometry" />
        </mxCell>
        <mxCell id="vbxx1KznmS1wmp12UJdr-14" value="c&amp;nbsp;!= 0" style="rhombus;whiteSpace=wrap;html=1;fontSize=16;" parent="WIyWlLk6GJQsqaUBKTNV-1" vertex="1">
          <mxGeometry x="300" y="1180" width="140" height="60" as="geometry" />
        </mxCell>
        <mxCell id="vbxx1KznmS1wmp12UJdr-16" value="No" style="rounded=0;html=1;jettySize=auto;orthogonalLoop=1;fontSize=16;endArrow=block;endFill=0;endSize=8;strokeWidth=1;shadow=0;labelBackgroundColor=none;edgeStyle=orthogonalEdgeStyle;exitX=1;exitY=0.5;exitDx=0;exitDy=0;" parent="WIyWlLk6GJQsqaUBKTNV-1" source="vbxx1KznmS1wmp12UJdr-1" edge="1">
          <mxGeometry x="-0.5556" y="20" relative="1" as="geometry">
            <mxPoint as="offset" />
            <mxPoint x="540" y="560" as="sourcePoint" />
            <mxPoint x="390" y="570" as="targetPoint" />
            <Array as="points">
              <mxPoint x="690" y="410" />
              <mxPoint x="690" y="550" />
              <mxPoint x="390" y="550" />
            </Array>
          </mxGeometry>
        </mxCell>
        <mxCell id="vbxx1KznmS1wmp12UJdr-17" value="Yes" style="rounded=0;html=1;jettySize=auto;orthogonalLoop=1;fontSize=16;endArrow=block;endFill=0;endSize=8;strokeWidth=1;shadow=0;labelBackgroundColor=none;edgeStyle=orthogonalEdgeStyle;exitX=0.5;exitY=1;exitDx=0;exitDy=0;entryX=0.5;entryY=0;entryDx=0;entryDy=0;" parent="WIyWlLk6GJQsqaUBKTNV-1" source="vbxx1KznmS1wmp12UJdr-1" target="WIyWlLk6GJQsqaUBKTNV-11" edge="1">
          <mxGeometry x="0.3333" y="20" relative="1" as="geometry">
            <mxPoint as="offset" />
            <mxPoint x="560" y="590" as="sourcePoint" />
            <mxPoint x="640" y="510" as="targetPoint" />
          </mxGeometry>
        </mxCell>
        <mxCell id="vbxx1KznmS1wmp12UJdr-18" value="Yes" style="rounded=0;html=1;jettySize=auto;orthogonalLoop=1;fontSize=16;endArrow=block;endFill=0;endSize=8;strokeWidth=1;shadow=0;labelBackgroundColor=none;edgeStyle=orthogonalEdgeStyle;exitX=0.5;exitY=1;exitDx=0;exitDy=0;entryX=0.5;entryY=0;entryDx=0;entryDy=0;" parent="WIyWlLk6GJQsqaUBKTNV-1" source="vbxx1KznmS1wmp12UJdr-2" target="vbxx1KznmS1wmp12UJdr-13" edge="1">
          <mxGeometry x="0.3333" y="20" relative="1" as="geometry">
            <mxPoint as="offset" />
            <mxPoint x="380" y="695" as="sourcePoint" />
            <mxPoint x="380" y="790" as="targetPoint" />
          </mxGeometry>
        </mxCell>
        <mxCell id="vbxx1KznmS1wmp12UJdr-19" value="No" style="rounded=0;html=1;jettySize=auto;orthogonalLoop=1;fontSize=16;endArrow=block;endFill=0;endSize=8;strokeWidth=1;shadow=0;labelBackgroundColor=none;edgeStyle=orthogonalEdgeStyle;exitX=1;exitY=0.5;exitDx=0;exitDy=0;entryX=1;entryY=0.5;entryDx=0;entryDy=0;" parent="WIyWlLk6GJQsqaUBKTNV-1" source="vbxx1KznmS1wmp12UJdr-2" target="vbxx1KznmS1wmp12UJdr-14" edge="1">
          <mxGeometry x="-0.706" y="-12" relative="1" as="geometry">
            <mxPoint as="offset" />
            <mxPoint x="890" y="600" as="sourcePoint" />
            <mxPoint x="890" y="695" as="targetPoint" />
            <Array as="points">
              <mxPoint x="640" y="658" />
              <mxPoint x="640" y="1210" />
            </Array>
          </mxGeometry>
        </mxCell>
        <mxCell id="vbxx1KznmS1wmp12UJdr-21" value="&lt;div style=&quot;background-color: rgb(255 , 255 , 255) ; font-family: &amp;#34;consolas&amp;#34; , &amp;#34;courier new&amp;#34; , monospace ; font-size: 14px ; line-height: 19px&quot;&gt;&lt;span style=&quot;color: #267f99&quot;&gt;Math&lt;/span&gt;.&lt;span style=&quot;color: #795e26&quot;&gt;abs&lt;/span&gt;(&lt;span style=&quot;color: #001080&quot;&gt;b&lt;/span&gt;)&amp;nbsp;!=&amp;nbsp;&lt;span style=&quot;color: #098658&quot;&gt;1&lt;/span&gt;&lt;/div&gt;" style="rhombus;whiteSpace=wrap;html=1;fontSize=16;" parent="WIyWlLk6GJQsqaUBKTNV-1" vertex="1">
          <mxGeometry x="260" y="935" width="220" height="50" as="geometry" />
        </mxCell>
        <mxCell id="vbxx1KznmS1wmp12UJdr-22" value="&lt;div style=&quot;background-color: rgb(255 , 255 , 255) ; font-family: &amp;#34;consolas&amp;#34; , &amp;#34;courier new&amp;#34; , monospace ; font-size: 14px ; line-height: 19px&quot;&gt;&lt;div style=&quot;font-family: &amp;#34;consolas&amp;#34; , &amp;#34;courier new&amp;#34; , monospace ; line-height: 19px&quot;&gt;&lt;span style=&quot;color: #001080&quot;&gt;equation&lt;/span&gt;.&lt;span style=&quot;color: #795e26&quot;&gt;append&lt;/span&gt;(&lt;span style=&quot;color: #a31515&quot;&gt;&quot;+&quot;&lt;/span&gt;);&lt;/div&gt;&lt;/div&gt;" style="rounded=0;whiteSpace=wrap;html=1;fontSize=16;glass=0;strokeWidth=1;shadow=0;" parent="WIyWlLk6GJQsqaUBKTNV-1" vertex="1">
          <mxGeometry x="140" y="835" width="200" height="40" as="geometry" />
        </mxCell>
        <mxCell id="vbxx1KznmS1wmp12UJdr-23" value="Yes" style="rounded=0;html=1;jettySize=auto;orthogonalLoop=1;fontSize=16;endArrow=block;endFill=0;endSize=8;strokeWidth=1;shadow=0;labelBackgroundColor=none;edgeStyle=orthogonalEdgeStyle;exitX=0;exitY=0.5;exitDx=0;exitDy=0;entryX=0.5;entryY=0;entryDx=0;entryDy=0;" parent="WIyWlLk6GJQsqaUBKTNV-1" source="vbxx1KznmS1wmp12UJdr-13" target="vbxx1KznmS1wmp12UJdr-22" edge="1">
          <mxGeometry x="0.5" y="-20" relative="1" as="geometry">
            <mxPoint y="-1" as="offset" />
            <mxPoint x="490" y="705" as="sourcePoint" />
            <mxPoint x="290" y="795" as="targetPoint" />
          </mxGeometry>
        </mxCell>
        <mxCell id="vbxx1KznmS1wmp12UJdr-26" value="&lt;div style=&quot;background-color: rgb(255 , 255 , 255) ; font-family: &amp;#34;consolas&amp;#34; , &amp;#34;courier new&amp;#34; , monospace ; font-size: 14px ; line-height: 19px&quot;&gt;&lt;div style=&quot;font-family: &amp;#34;consolas&amp;#34; , &amp;#34;courier new&amp;#34; , monospace ; line-height: 19px&quot;&gt;&lt;div style=&quot;font-family: &amp;#34;consolas&amp;#34; , &amp;#34;courier new&amp;#34; , monospace ; line-height: 19px&quot;&gt;&lt;span style=&quot;color: #001080&quot;&gt;equation&lt;/span&gt;.&lt;span style=&quot;color: #795e26&quot;&gt;append&lt;/span&gt;(&lt;span style=&quot;color: #795e26&quot;&gt;format&lt;/span&gt;(&lt;span style=&quot;color: #001080&quot;&gt;b&lt;/span&gt;));&lt;/div&gt;&lt;/div&gt;&lt;/div&gt;" style="rounded=0;whiteSpace=wrap;html=1;fontSize=16;glass=0;strokeWidth=1;shadow=0;" parent="WIyWlLk6GJQsqaUBKTNV-1" vertex="1">
          <mxGeometry x="250" y="1025" width="240" height="40" as="geometry" />
        </mxCell>
        <mxCell id="vbxx1KznmS1wmp12UJdr-27" value="No" style="rounded=0;html=1;jettySize=auto;orthogonalLoop=1;fontSize=16;endArrow=block;endFill=0;endSize=8;strokeWidth=1;shadow=0;labelBackgroundColor=none;edgeStyle=orthogonalEdgeStyle;exitX=1;exitY=0.5;exitDx=0;exitDy=0;entryX=0.5;entryY=0;entryDx=0;entryDy=0;" parent="WIyWlLk6GJQsqaUBKTNV-1" source="vbxx1KznmS1wmp12UJdr-13" target="vbxx1KznmS1wmp12UJdr-29" edge="1">
          <mxGeometry x="0.3571" y="20" relative="1" as="geometry">
            <mxPoint y="1" as="offset" />
            <mxPoint x="290" y="835" as="sourcePoint" />
            <mxPoint x="540" y="815" as="targetPoint" />
          </mxGeometry>
        </mxCell>
        <mxCell id="vbxx1KznmS1wmp12UJdr-29" value="&lt;div style=&quot;background-color: rgb(255 , 255 , 255) ; font-family: &amp;#34;consolas&amp;#34; , &amp;#34;courier new&amp;#34; , monospace ; font-size: 14px ; line-height: 19px&quot;&gt;&lt;div style=&quot;font-family: &amp;#34;consolas&amp;#34; , &amp;#34;courier new&amp;#34; , monospace ; line-height: 19px&quot;&gt;&lt;span style=&quot;color: #001080&quot;&gt;equation&lt;/span&gt;.&lt;span style=&quot;color: #795e26&quot;&gt;append&lt;/span&gt;(&lt;span style=&quot;color: #a31515&quot;&gt;&quot;-&quot;&lt;/span&gt;);&lt;/div&gt;&lt;/div&gt;" style="rounded=0;whiteSpace=wrap;html=1;fontSize=16;glass=0;strokeWidth=1;shadow=0;" parent="WIyWlLk6GJQsqaUBKTNV-1" vertex="1">
          <mxGeometry x="400" y="835" width="200" height="40" as="geometry" />
        </mxCell>
        <mxCell id="vbxx1KznmS1wmp12UJdr-30" value="c &amp;gt; 0" style="rhombus;whiteSpace=wrap;html=1;fontSize=16;" parent="WIyWlLk6GJQsqaUBKTNV-1" vertex="1">
          <mxGeometry x="300" y="1270" width="140" height="50" as="geometry" />
        </mxCell>
        <mxCell id="vbxx1KznmS1wmp12UJdr-41" value="" style="rounded=0;html=1;jettySize=auto;orthogonalLoop=1;fontSize=16;endArrow=block;endFill=0;endSize=8;strokeWidth=1;shadow=0;labelBackgroundColor=none;edgeStyle=orthogonalEdgeStyle;exitX=0.5;exitY=1;exitDx=0;exitDy=0;entryX=0.5;entryY=0;entryDx=0;entryDy=0;" parent="WIyWlLk6GJQsqaUBKTNV-1" source="WIyWlLk6GJQsqaUBKTNV-3" target="vbxx1KznmS1wmp12UJdr-71" edge="1">
          <mxGeometry y="20" relative="1" as="geometry">
            <mxPoint as="offset" />
            <mxPoint x="380" y="180" as="sourcePoint" />
            <mxPoint x="370.0000000000002" y="140.0000000000001" as="targetPoint" />
          </mxGeometry>
        </mxCell>
        <mxCell id="vbxx1KznmS1wmp12UJdr-43" value="" style="rounded=0;html=1;jettySize=auto;orthogonalLoop=1;fontSize=16;endArrow=block;endFill=0;endSize=8;strokeWidth=1;shadow=0;labelBackgroundColor=none;edgeStyle=orthogonalEdgeStyle;entryX=0.5;entryY=0;entryDx=0;entryDy=0;exitX=0.5;exitY=1;exitDx=0;exitDy=0;" parent="WIyWlLk6GJQsqaUBKTNV-1" source="vbxx1KznmS1wmp12UJdr-6" target="vbxx1KznmS1wmp12UJdr-2" edge="1">
          <mxGeometry y="20" relative="1" as="geometry">
            <mxPoint as="offset" />
            <mxPoint x="710" y="570" as="sourcePoint" />
            <mxPoint x="660" y="600" as="targetPoint" />
          </mxGeometry>
        </mxCell>
        <mxCell id="vbxx1KznmS1wmp12UJdr-44" value="" style="rounded=0;html=1;jettySize=auto;orthogonalLoop=1;fontSize=16;endArrow=block;endFill=0;endSize=8;strokeWidth=1;shadow=0;labelBackgroundColor=none;edgeStyle=orthogonalEdgeStyle;exitX=0.5;exitY=1;exitDx=0;exitDy=0;" parent="WIyWlLk6GJQsqaUBKTNV-1" source="WIyWlLk6GJQsqaUBKTNV-11" target="vbxx1KznmS1wmp12UJdr-6" edge="1">
          <mxGeometry y="20" relative="1" as="geometry">
            <mxPoint as="offset" />
            <mxPoint x="730" y="460" as="sourcePoint" />
            <mxPoint x="730" y="675" as="targetPoint" />
          </mxGeometry>
        </mxCell>
        <mxCell id="vbxx1KznmS1wmp12UJdr-45" value="" style="rounded=0;html=1;jettySize=auto;orthogonalLoop=1;fontSize=16;endArrow=block;endFill=0;endSize=8;strokeWidth=1;shadow=0;labelBackgroundColor=none;edgeStyle=orthogonalEdgeStyle;exitX=0.5;exitY=1;exitDx=0;exitDy=0;" parent="WIyWlLk6GJQsqaUBKTNV-1" source="WIyWlLk6GJQsqaUBKTNV-12" edge="1">
          <mxGeometry y="20" relative="1" as="geometry">
            <mxPoint as="offset" />
            <mxPoint x="740" y="470" as="sourcePoint" />
            <mxPoint x="390" y="570" as="targetPoint" />
          </mxGeometry>
        </mxCell>
        <mxCell id="vbxx1KznmS1wmp12UJdr-46" value="" style="rounded=0;html=1;jettySize=auto;orthogonalLoop=1;fontSize=16;endArrow=block;endFill=0;endSize=8;strokeWidth=1;shadow=0;labelBackgroundColor=none;edgeStyle=orthogonalEdgeStyle;entryX=0.5;entryY=0;entryDx=0;entryDy=0;exitX=0.5;exitY=1;exitDx=0;exitDy=0;" parent="WIyWlLk6GJQsqaUBKTNV-1" source="vbxx1KznmS1wmp12UJdr-22" target="vbxx1KznmS1wmp12UJdr-21" edge="1">
          <mxGeometry y="20" relative="1" as="geometry">
            <mxPoint as="offset" />
            <mxPoint x="380" y="765" as="sourcePoint" />
            <mxPoint x="510" y="670" as="targetPoint" />
          </mxGeometry>
        </mxCell>
        <mxCell id="vbxx1KznmS1wmp12UJdr-47" value="" style="rounded=0;html=1;jettySize=auto;orthogonalLoop=1;fontSize=16;endArrow=block;endFill=0;endSize=8;strokeWidth=1;shadow=0;labelBackgroundColor=none;edgeStyle=orthogonalEdgeStyle;exitX=0.5;exitY=1;exitDx=0;exitDy=0;" parent="WIyWlLk6GJQsqaUBKTNV-1" source="vbxx1KznmS1wmp12UJdr-29" edge="1">
          <mxGeometry y="20" relative="1" as="geometry">
            <mxPoint as="offset" />
            <mxPoint x="250" y="885" as="sourcePoint" />
            <mxPoint x="370" y="935" as="targetPoint" />
          </mxGeometry>
        </mxCell>
        <mxCell id="vbxx1KznmS1wmp12UJdr-49" value="Yes" style="rounded=0;html=1;jettySize=auto;orthogonalLoop=1;fontSize=16;endArrow=block;endFill=0;endSize=8;strokeWidth=1;shadow=0;labelBackgroundColor=none;edgeStyle=orthogonalEdgeStyle;exitX=0.5;exitY=1;exitDx=0;exitDy=0;" parent="WIyWlLk6GJQsqaUBKTNV-1" source="vbxx1KznmS1wmp12UJdr-21" target="vbxx1KznmS1wmp12UJdr-26" edge="1">
          <mxGeometry x="0.3333" y="20" relative="1" as="geometry">
            <mxPoint as="offset" />
            <mxPoint x="380" y="695" as="sourcePoint" />
            <mxPoint x="380" y="745" as="targetPoint" />
          </mxGeometry>
        </mxCell>
        <mxCell id="vbxx1KznmS1wmp12UJdr-50" value="&lt;div style=&quot;background-color: rgb(255 , 255 , 255) ; font-family: &amp;#34;consolas&amp;#34; , &amp;#34;courier new&amp;#34; , monospace ; font-size: 14px ; line-height: 19px&quot;&gt;&lt;span style=&quot;color: #001080&quot;&gt;equation&lt;/span&gt;.&lt;span style=&quot;color: #795e26&quot;&gt;append&lt;/span&gt;(&lt;span style=&quot;color: #a31515&quot;&gt;&quot;x&quot;&lt;/span&gt;);&lt;/div&gt;" style="rounded=0;whiteSpace=wrap;html=1;fontSize=16;glass=0;strokeWidth=1;shadow=0;" parent="WIyWlLk6GJQsqaUBKTNV-1" vertex="1">
          <mxGeometry x="270" y="1095" width="200" height="40" as="geometry" />
        </mxCell>
        <mxCell id="vbxx1KznmS1wmp12UJdr-51" value="" style="rounded=0;html=1;jettySize=auto;orthogonalLoop=1;fontSize=16;endArrow=block;endFill=0;endSize=8;strokeWidth=1;shadow=0;labelBackgroundColor=none;edgeStyle=orthogonalEdgeStyle;exitX=0.5;exitY=1;exitDx=0;exitDy=0;entryX=0.5;entryY=0;entryDx=0;entryDy=0;" parent="WIyWlLk6GJQsqaUBKTNV-1" source="vbxx1KznmS1wmp12UJdr-26" target="vbxx1KznmS1wmp12UJdr-50" edge="1">
          <mxGeometry y="20" relative="1" as="geometry">
            <mxPoint as="offset" />
            <mxPoint x="510" y="885" as="sourcePoint" />
            <mxPoint x="380" y="945" as="targetPoint" />
          </mxGeometry>
        </mxCell>
        <mxCell id="vbxx1KznmS1wmp12UJdr-52" value="No" style="rounded=0;html=1;jettySize=auto;orthogonalLoop=1;fontSize=16;endArrow=block;endFill=0;endSize=8;strokeWidth=1;shadow=0;labelBackgroundColor=none;edgeStyle=orthogonalEdgeStyle;exitX=1;exitY=0.5;exitDx=0;exitDy=0;entryX=1;entryY=0.5;entryDx=0;entryDy=0;" parent="WIyWlLk6GJQsqaUBKTNV-1" source="vbxx1KznmS1wmp12UJdr-21" target="vbxx1KznmS1wmp12UJdr-50" edge="1">
          <mxGeometry x="0.122" y="20" relative="1" as="geometry">
            <mxPoint y="-1" as="offset" />
            <mxPoint x="380" y="785" as="sourcePoint" />
            <mxPoint x="510" y="845" as="targetPoint" />
          </mxGeometry>
        </mxCell>
        <mxCell id="vbxx1KznmS1wmp12UJdr-56" value="" style="rounded=0;html=1;jettySize=auto;orthogonalLoop=1;fontSize=16;endArrow=block;endFill=0;endSize=8;strokeWidth=1;shadow=0;labelBackgroundColor=none;edgeStyle=orthogonalEdgeStyle;exitX=0.5;exitY=1;exitDx=0;exitDy=0;entryX=0.5;entryY=0;entryDx=0;entryDy=0;" parent="WIyWlLk6GJQsqaUBKTNV-1" source="vbxx1KznmS1wmp12UJdr-50" target="vbxx1KznmS1wmp12UJdr-14" edge="1">
          <mxGeometry y="20" relative="1" as="geometry">
            <mxPoint as="offset" />
            <mxPoint x="380" y="1075" as="sourcePoint" />
            <mxPoint x="380" y="1105" as="targetPoint" />
          </mxGeometry>
        </mxCell>
        <mxCell id="vbxx1KznmS1wmp12UJdr-58" value="&lt;div style=&quot;background-color: rgb(255 , 255 , 255) ; font-family: &amp;#34;consolas&amp;#34; , &amp;#34;courier new&amp;#34; , monospace ; font-size: 14px ; line-height: 19px&quot;&gt;&lt;div style=&quot;font-family: &amp;#34;consolas&amp;#34; , &amp;#34;courier new&amp;#34; , monospace ; line-height: 19px&quot;&gt;&lt;span style=&quot;color: #001080&quot;&gt;equation&lt;/span&gt;.&lt;span style=&quot;color: #795e26&quot;&gt;append&lt;/span&gt;(&lt;span style=&quot;color: #a31515&quot;&gt;&quot;+&quot;&lt;/span&gt;);&lt;/div&gt;&lt;/div&gt;" style="rounded=0;whiteSpace=wrap;html=1;fontSize=16;glass=0;strokeWidth=1;shadow=0;" parent="WIyWlLk6GJQsqaUBKTNV-1" vertex="1">
          <mxGeometry x="150" y="1350" width="200" height="40" as="geometry" />
        </mxCell>
        <mxCell id="vbxx1KznmS1wmp12UJdr-60" value="&lt;div style=&quot;background-color: rgb(255 , 255 , 255) ; font-family: &amp;#34;consolas&amp;#34; , &amp;#34;courier new&amp;#34; , monospace ; font-size: 14px ; line-height: 19px&quot;&gt;&lt;div style=&quot;font-family: &amp;#34;consolas&amp;#34; , &amp;#34;courier new&amp;#34; , monospace ; line-height: 19px&quot;&gt;&lt;div style=&quot;font-family: &amp;#34;consolas&amp;#34; , &amp;#34;courier new&amp;#34; , monospace ; line-height: 19px&quot;&gt;&lt;span style=&quot;color: #001080&quot;&gt;equation&lt;/span&gt;.&lt;span style=&quot;color: #795e26&quot;&gt;append&lt;/span&gt;(&lt;span style=&quot;color: #795e26&quot;&gt;format&lt;/span&gt;(&lt;font color=&quot;#001080&quot;&gt;c&lt;/font&gt;));&lt;/div&gt;&lt;/div&gt;&lt;/div&gt;" style="rounded=0;whiteSpace=wrap;html=1;fontSize=16;glass=0;strokeWidth=1;shadow=0;" parent="WIyWlLk6GJQsqaUBKTNV-1" vertex="1">
          <mxGeometry x="250" y="1440" width="240" height="40" as="geometry" />
        </mxCell>
        <mxCell id="vbxx1KznmS1wmp12UJdr-63" value="" style="rounded=0;html=1;jettySize=auto;orthogonalLoop=1;fontSize=16;endArrow=block;endFill=0;endSize=8;strokeWidth=1;shadow=0;labelBackgroundColor=none;edgeStyle=orthogonalEdgeStyle;exitX=0.5;exitY=1;exitDx=0;exitDy=0;entryX=0.5;entryY=0;entryDx=0;entryDy=0;" parent="WIyWlLk6GJQsqaUBKTNV-1" source="vbxx1KznmS1wmp12UJdr-58" target="vbxx1KznmS1wmp12UJdr-60" edge="1">
          <mxGeometry y="20" relative="1" as="geometry">
            <mxPoint as="offset" />
            <mxPoint x="380" y="1330" as="sourcePoint" />
            <mxPoint x="380" y="1360" as="targetPoint" />
          </mxGeometry>
        </mxCell>
        <mxCell id="vbxx1KznmS1wmp12UJdr-64" value="Yes" style="rounded=0;html=1;jettySize=auto;orthogonalLoop=1;fontSize=16;endArrow=block;endFill=0;endSize=8;strokeWidth=1;shadow=0;labelBackgroundColor=none;edgeStyle=orthogonalEdgeStyle;exitX=0.5;exitY=1;exitDx=0;exitDy=0;" parent="WIyWlLk6GJQsqaUBKTNV-1" source="vbxx1KznmS1wmp12UJdr-14" target="vbxx1KznmS1wmp12UJdr-30" edge="1">
          <mxGeometry x="0.3333" y="20" relative="1" as="geometry">
            <mxPoint as="offset" />
            <mxPoint x="499.5" y="1270" as="sourcePoint" />
            <mxPoint x="499.5" y="1310" as="targetPoint" />
          </mxGeometry>
        </mxCell>
        <mxCell id="vbxx1KznmS1wmp12UJdr-66" value="No" style="rounded=0;html=1;jettySize=auto;orthogonalLoop=1;fontSize=16;endArrow=block;endFill=0;endSize=8;strokeWidth=1;shadow=0;labelBackgroundColor=none;edgeStyle=orthogonalEdgeStyle;exitX=1;exitY=0.5;exitDx=0;exitDy=0;entryX=0.5;entryY=0;entryDx=0;entryDy=0;" parent="WIyWlLk6GJQsqaUBKTNV-1" source="vbxx1KznmS1wmp12UJdr-30" target="vbxx1KznmS1wmp12UJdr-80" edge="1">
          <mxGeometry x="0.122" y="20" relative="1" as="geometry">
            <mxPoint y="-1" as="offset" />
            <mxPoint x="510" y="1290" as="sourcePoint" />
            <mxPoint x="550" y="1310" as="targetPoint" />
          </mxGeometry>
        </mxCell>
        <mxCell id="vbxx1KznmS1wmp12UJdr-67" value="No" style="rounded=0;html=1;jettySize=auto;orthogonalLoop=1;fontSize=16;endArrow=block;endFill=0;endSize=8;strokeWidth=1;shadow=0;labelBackgroundColor=none;edgeStyle=orthogonalEdgeStyle;exitX=0;exitY=0.5;exitDx=0;exitDy=0;entryX=0;entryY=0.5;entryDx=0;entryDy=0;" parent="WIyWlLk6GJQsqaUBKTNV-1" source="vbxx1KznmS1wmp12UJdr-14" target="vbxx1KznmS1wmp12UJdr-68" edge="1">
          <mxGeometry x="-0.2698" y="20" relative="1" as="geometry">
            <mxPoint as="offset" />
            <mxPoint x="500" y="980" as="sourcePoint" />
            <mxPoint x="230" y="1420" as="targetPoint" />
            <Array as="points">
              <mxPoint x="120" y="1210" />
              <mxPoint x="120" y="1530" />
            </Array>
          </mxGeometry>
        </mxCell>
        <mxCell id="vbxx1KznmS1wmp12UJdr-68" value="&lt;div style=&quot;background-color: rgb(255 , 255 , 255) ; font-family: &amp;#34;consolas&amp;#34; , &amp;#34;courier new&amp;#34; , monospace ; font-size: 14px ; line-height: 19px&quot;&gt;&lt;div style=&quot;font-family: &amp;#34;consolas&amp;#34; , &amp;#34;courier new&amp;#34; , monospace ; line-height: 19px&quot;&gt;&lt;div style=&quot;font-family: &amp;#34;consolas&amp;#34; , &amp;#34;courier new&amp;#34; , monospace ; line-height: 19px&quot;&gt;&lt;div style=&quot;font-family: &amp;#34;consolas&amp;#34; , &amp;#34;courier new&amp;#34; , monospace ; line-height: 19px&quot;&gt;&lt;span style=&quot;color: #001080&quot;&gt;equation&lt;/span&gt;.&lt;span style=&quot;color: #795e26&quot;&gt;append&lt;/span&gt;(&lt;span style=&quot;color: #a31515&quot;&gt;&quot;=0&quot;&lt;/span&gt;);&lt;/div&gt;&lt;/div&gt;&lt;/div&gt;&lt;/div&gt;" style="rounded=0;whiteSpace=wrap;html=1;fontSize=16;glass=0;strokeWidth=1;shadow=0;" parent="WIyWlLk6GJQsqaUBKTNV-1" vertex="1">
          <mxGeometry x="250" y="1510" width="240" height="40" as="geometry" />
        </mxCell>
        <mxCell id="vbxx1KznmS1wmp12UJdr-69" value="" style="rounded=0;html=1;jettySize=auto;orthogonalLoop=1;fontSize=16;endArrow=block;endFill=0;endSize=8;strokeWidth=1;shadow=0;labelBackgroundColor=none;edgeStyle=orthogonalEdgeStyle;exitX=0.5;exitY=1;exitDx=0;exitDy=0;" parent="WIyWlLk6GJQsqaUBKTNV-1" source="vbxx1KznmS1wmp12UJdr-60" target="vbxx1KznmS1wmp12UJdr-68" edge="1">
          <mxGeometry y="20" relative="1" as="geometry">
            <mxPoint as="offset" />
            <mxPoint x="380" y="1400" as="sourcePoint" />
            <mxPoint x="380" y="1430" as="targetPoint" />
          </mxGeometry>
        </mxCell>
        <mxCell id="vbxx1KznmS1wmp12UJdr-70" value="&lt;div style=&quot;background-color: rgb(255 , 255 , 255) ; font-family: &amp;#34;consolas&amp;#34; , &amp;#34;courier new&amp;#34; , monospace ; font-size: 14px ; line-height: 19px&quot;&gt;&lt;div style=&quot;font-family: &amp;#34;consolas&amp;#34; , &amp;#34;courier new&amp;#34; , monospace ; line-height: 19px&quot;&gt;&lt;div style=&quot;font-family: &amp;#34;consolas&amp;#34; , &amp;#34;courier new&amp;#34; , monospace ; line-height: 19px&quot;&gt;&lt;div style=&quot;font-family: &amp;#34;consolas&amp;#34; , &amp;#34;courier new&amp;#34; , monospace ; line-height: 19px&quot;&gt;&lt;font color=&quot;#001080&quot;&gt;output equation&lt;/font&gt;&lt;/div&gt;&lt;/div&gt;&lt;/div&gt;&lt;/div&gt;" style="rounded=0;whiteSpace=wrap;html=1;fontSize=16;glass=0;strokeWidth=1;shadow=0;" parent="WIyWlLk6GJQsqaUBKTNV-1" vertex="1">
          <mxGeometry x="250" y="1570" width="240" height="40" as="geometry" />
        </mxCell>
        <mxCell id="vbxx1KznmS1wmp12UJdr-71" value="&lt;div style=&quot;background-color: rgb(255 , 255 , 255) ; font-family: &amp;#34;consolas&amp;#34; , &amp;#34;courier new&amp;#34; , monospace ; font-size: 14px ; line-height: 19px&quot;&gt;&lt;span style=&quot;font-family: &amp;#34;helvetica&amp;#34; ; font-size: 16px ; background-color: rgb(248 , 249 , 250)&quot;&gt;input a,b,c&lt;/span&gt;&lt;span style=&quot;color: #267f99&quot;&gt;&lt;br&gt;&lt;/span&gt;&lt;/div&gt;&lt;div style=&quot;background-color: rgb(255 , 255 , 255) ; font-family: &amp;#34;consolas&amp;#34; , &amp;#34;courier new&amp;#34; , monospace ; font-size: 14px ; line-height: 19px&quot;&gt;&lt;span style=&quot;color: #267f99&quot;&gt;StringBuffer&lt;/span&gt;&amp;nbsp;&lt;span style=&quot;color: #001080&quot;&gt;equation&lt;/span&gt;&amp;nbsp;=&amp;nbsp;&lt;span style=&quot;color: #af00db&quot;&gt;new&lt;/span&gt;&amp;nbsp;&lt;span style=&quot;color: #795e26&quot;&gt;StringBuffer&lt;/span&gt;();&lt;/div&gt;" style="rounded=0;whiteSpace=wrap;html=1;fontSize=16;glass=0;strokeWidth=1;shadow=0;" parent="WIyWlLk6GJQsqaUBKTNV-1" vertex="1">
          <mxGeometry x="185" y="200" width="370" height="60" as="geometry" />
        </mxCell>
        <mxCell id="vbxx1KznmS1wmp12UJdr-74" value="" style="rounded=0;html=1;jettySize=auto;orthogonalLoop=1;fontSize=16;endArrow=block;endFill=0;endSize=8;strokeWidth=1;shadow=0;labelBackgroundColor=none;edgeStyle=orthogonalEdgeStyle;entryX=0.5;entryY=0;entryDx=0;entryDy=0;exitX=0.5;exitY=1;exitDx=0;exitDy=0;" parent="WIyWlLk6GJQsqaUBKTNV-1" source="vbxx1KznmS1wmp12UJdr-71" target="WIyWlLk6GJQsqaUBKTNV-6" edge="1">
          <mxGeometry y="20" relative="1" as="geometry">
            <mxPoint as="offset" />
            <mxPoint x="380" y="190" as="sourcePoint" />
            <mxPoint x="380" y="230" as="targetPoint" />
          </mxGeometry>
        </mxCell>
        <mxCell id="vbxx1KznmS1wmp12UJdr-75" value="end" style="rounded=1;whiteSpace=wrap;html=1;fontSize=16;glass=0;strokeWidth=1;shadow=0;" parent="WIyWlLk6GJQsqaUBKTNV-1" vertex="1">
          <mxGeometry x="340" y="1630" width="60" height="40" as="geometry" />
        </mxCell>
        <mxCell id="vbxx1KznmS1wmp12UJdr-77" value="" style="rounded=0;html=1;jettySize=auto;orthogonalLoop=1;fontSize=16;endArrow=block;endFill=0;endSize=8;strokeWidth=1;shadow=0;labelBackgroundColor=none;edgeStyle=orthogonalEdgeStyle;exitX=0.5;exitY=1;exitDx=0;exitDy=0;entryX=0.5;entryY=0;entryDx=0;entryDy=0;" parent="WIyWlLk6GJQsqaUBKTNV-1" source="vbxx1KznmS1wmp12UJdr-68" target="vbxx1KznmS1wmp12UJdr-70" edge="1">
          <mxGeometry y="20" relative="1" as="geometry">
            <mxPoint as="offset" />
            <mxPoint x="380" y="1470" as="sourcePoint" />
            <mxPoint x="380" y="1500" as="targetPoint" />
          </mxGeometry>
        </mxCell>
        <mxCell id="vbxx1KznmS1wmp12UJdr-78" value="" style="rounded=0;html=1;jettySize=auto;orthogonalLoop=1;fontSize=16;endArrow=block;endFill=0;endSize=8;strokeWidth=1;shadow=0;labelBackgroundColor=none;edgeStyle=orthogonalEdgeStyle;exitX=0.5;exitY=1;exitDx=0;exitDy=0;entryX=0.5;entryY=0;entryDx=0;entryDy=0;" parent="WIyWlLk6GJQsqaUBKTNV-1" source="vbxx1KznmS1wmp12UJdr-70" target="vbxx1KznmS1wmp12UJdr-75" edge="1">
          <mxGeometry y="20" relative="1" as="geometry">
            <mxPoint as="offset" />
            <mxPoint x="390" y="1480" as="sourcePoint" />
            <mxPoint x="390" y="1510" as="targetPoint" />
          </mxGeometry>
        </mxCell>
        <mxCell id="vbxx1KznmS1wmp12UJdr-79" value="" style="rounded=0;html=1;jettySize=auto;orthogonalLoop=1;fontSize=16;endArrow=block;endFill=0;endSize=8;strokeWidth=1;shadow=0;labelBackgroundColor=none;edgeStyle=orthogonalEdgeStyle;exitX=1;exitY=0.5;exitDx=0;exitDy=0;" parent="WIyWlLk6GJQsqaUBKTNV-1" source="WIyWlLk6GJQsqaUBKTNV-7" edge="1">
          <mxGeometry y="20" relative="1" as="geometry">
            <mxPoint as="offset" />
            <mxPoint x="380" y="190" as="sourcePoint" />
            <mxPoint x="400" y="1650" as="targetPoint" />
            <Array as="points">
              <mxPoint x="760" y="315" />
              <mxPoint x="760" y="1650" />
            </Array>
          </mxGeometry>
        </mxCell>
        <mxCell id="vbxx1KznmS1wmp12UJdr-80" value="&lt;div style=&quot;background-color: rgb(255 , 255 , 255) ; font-family: &amp;#34;consolas&amp;#34; , &amp;#34;courier new&amp;#34; , monospace ; font-size: 14px ; line-height: 19px&quot;&gt;&lt;div style=&quot;font-family: &amp;#34;consolas&amp;#34; , &amp;#34;courier new&amp;#34; , monospace ; line-height: 19px&quot;&gt;&lt;span style=&quot;color: #001080&quot;&gt;equation&lt;/span&gt;.&lt;span style=&quot;color: #795e26&quot;&gt;append&lt;/span&gt;(&lt;span style=&quot;color: #a31515&quot;&gt;&quot;-&quot;&lt;/span&gt;);&lt;/div&gt;&lt;/div&gt;" style="rounded=0;whiteSpace=wrap;html=1;fontSize=16;glass=0;strokeWidth=1;shadow=0;" parent="WIyWlLk6GJQsqaUBKTNV-1" vertex="1">
          <mxGeometry x="390" y="1350" width="200" height="40" as="geometry" />
        </mxCell>
        <mxCell id="vbxx1KznmS1wmp12UJdr-81" value="" style="rounded=0;html=1;jettySize=auto;orthogonalLoop=1;fontSize=16;endArrow=block;endFill=0;endSize=8;strokeWidth=1;shadow=0;labelBackgroundColor=none;edgeStyle=orthogonalEdgeStyle;exitX=0.5;exitY=1;exitDx=0;exitDy=0;entryX=0.5;entryY=0;entryDx=0;entryDy=0;" parent="WIyWlLk6GJQsqaUBKTNV-1" source="vbxx1KznmS1wmp12UJdr-80" target="vbxx1KznmS1wmp12UJdr-60" edge="1">
          <mxGeometry y="20" relative="1" as="geometry">
            <mxPoint as="offset" />
            <mxPoint x="380" y="1400" as="sourcePoint" />
            <mxPoint x="380" y="1430" as="targetPoint" />
          </mxGeometry>
        </mxCell>
        <mxCell id="vbxx1KznmS1wmp12UJdr-82" value="Yes" style="rounded=0;html=1;jettySize=auto;orthogonalLoop=1;fontSize=16;endArrow=block;endFill=0;endSize=8;strokeWidth=1;shadow=0;labelBackgroundColor=none;edgeStyle=orthogonalEdgeStyle;exitX=0;exitY=0.5;exitDx=0;exitDy=0;" parent="WIyWlLk6GJQsqaUBKTNV-1" source="vbxx1KznmS1wmp12UJdr-30" target="vbxx1KznmS1wmp12UJdr-58" edge="1">
          <mxGeometry x="0.3333" y="20" relative="1" as="geometry">
            <mxPoint as="offset" />
            <mxPoint x="380" y="1250" as="sourcePoint" />
            <mxPoint x="380.0000000000002" y="1280" as="targetPoint" />
          </mxGeometry>
        </mxCell>
        <mxCell id="UWMuWFpmPmcmwEo4yvlY-0" value="&lt;font color=&quot;#ff0000&quot;&gt;A&lt;/font&gt;" style="text;html=1;align=center;verticalAlign=middle;resizable=0;points=[];autosize=1;strokeColor=none;" vertex="1" parent="WIyWlLk6GJQsqaUBKTNV-1">
          <mxGeometry x="340" y="170" width="20" height="20" as="geometry" />
        </mxCell>
        <mxCell id="UWMuWFpmPmcmwEo4yvlY-1" value="&lt;font color=&quot;#ff0000&quot;&gt;B&lt;/font&gt;" style="text;html=1;align=center;verticalAlign=middle;resizable=0;points=[];autosize=1;strokeColor=none;" vertex="1" parent="WIyWlLk6GJQsqaUBKTNV-1">
          <mxGeometry x="340" y="270" width="20" height="20" as="geometry" />
        </mxCell>
        <mxCell id="UWMuWFpmPmcmwEo4yvlY-2" value="&lt;font color=&quot;#ff0000&quot;&gt;C&lt;/font&gt;" style="text;html=1;align=center;verticalAlign=middle;resizable=0;points=[];autosize=1;strokeColor=none;" vertex="1" parent="WIyWlLk6GJQsqaUBKTNV-1">
          <mxGeometry x="310" y="335" width="20" height="20" as="geometry" />
        </mxCell>
        <mxCell id="UWMuWFpmPmcmwEo4yvlY-3" value="&lt;font color=&quot;#ff0000&quot;&gt;D&lt;/font&gt;" style="text;html=1;align=center;verticalAlign=middle;resizable=0;points=[];autosize=1;strokeColor=none;" vertex="1" parent="WIyWlLk6GJQsqaUBKTNV-1">
          <mxGeometry x="500" y="315" width="20" height="20" as="geometry" />
        </mxCell>
        <mxCell id="UWMuWFpmPmcmwEo4yvlY-4" value="&lt;font color=&quot;#ff0000&quot;&gt;E&lt;/font&gt;" style="text;html=1;align=center;verticalAlign=middle;resizable=0;points=[];autosize=1;strokeColor=none;" vertex="1" parent="WIyWlLk6GJQsqaUBKTNV-1">
          <mxGeometry x="220" y="410" width="20" height="20" as="geometry" />
        </mxCell>
        <mxCell id="UWMuWFpmPmcmwEo4yvlY-5" value="&lt;font color=&quot;#ff0000&quot;&gt;F&lt;/font&gt;" style="text;html=1;align=center;verticalAlign=middle;resizable=0;points=[];autosize=1;strokeColor=none;" vertex="1" parent="WIyWlLk6GJQsqaUBKTNV-1">
          <mxGeometry x="460" y="420" width="20" height="20" as="geometry" />
        </mxCell>
        <mxCell id="UWMuWFpmPmcmwEo4yvlY-6" value="&lt;font color=&quot;#ff0000&quot;&gt;G&lt;/font&gt;" style="text;html=1;align=center;verticalAlign=middle;resizable=0;points=[];autosize=1;strokeColor=none;" vertex="1" parent="WIyWlLk6GJQsqaUBKTNV-1">
          <mxGeometry x="520" y="440" width="20" height="20" as="geometry" />
        </mxCell>
        <mxCell id="UWMuWFpmPmcmwEo4yvlY-7" value="&lt;font color=&quot;#ff0000&quot;&gt;H&lt;/font&gt;" style="text;html=1;align=center;verticalAlign=middle;resizable=0;points=[];autosize=1;strokeColor=none;" vertex="1" parent="WIyWlLk6GJQsqaUBKTNV-1">
          <mxGeometry x="660" y="430" width="20" height="20" as="geometry" />
        </mxCell>
        <mxCell id="UWMuWFpmPmcmwEo4yvlY-8" value="&lt;font color=&quot;#ff0000&quot;&gt;I&lt;/font&gt;" style="text;html=1;align=center;verticalAlign=middle;resizable=0;points=[];autosize=1;strokeColor=none;" vertex="1" parent="WIyWlLk6GJQsqaUBKTNV-1">
          <mxGeometry x="365" y="550" width="20" height="20" as="geometry" />
        </mxCell>
        <mxCell id="UWMuWFpmPmcmwEo4yvlY-9" value="&lt;font color=&quot;#ff0000&quot;&gt;J&lt;/font&gt;" style="text;html=1;align=center;verticalAlign=middle;resizable=0;points=[];autosize=1;strokeColor=none;" vertex="1" parent="WIyWlLk6GJQsqaUBKTNV-1">
          <mxGeometry x="385" y="610" width="20" height="20" as="geometry" />
        </mxCell>
        <mxCell id="UWMuWFpmPmcmwEo4yvlY-10" value="&lt;font color=&quot;#ff0000&quot;&gt;K&lt;/font&gt;" style="text;html=1;align=center;verticalAlign=middle;resizable=0;points=[];autosize=1;strokeColor=none;" vertex="1" parent="WIyWlLk6GJQsqaUBKTNV-1">
          <mxGeometry x="345" y="690" width="20" height="20" as="geometry" />
        </mxCell>
        <mxCell id="UWMuWFpmPmcmwEo4yvlY-11" value="&lt;font color=&quot;#ff0000&quot;&gt;L&lt;/font&gt;" style="text;html=1;align=center;verticalAlign=middle;resizable=0;points=[];autosize=1;strokeColor=none;" vertex="1" parent="WIyWlLk6GJQsqaUBKTNV-1">
          <mxGeometry x="540" y="665" width="20" height="20" as="geometry" />
        </mxCell>
        <mxCell id="UWMuWFpmPmcmwEo4yvlY-12" value="&lt;font color=&quot;#ff0000&quot;&gt;M&lt;/font&gt;" style="text;html=1;align=center;verticalAlign=middle;resizable=0;points=[];autosize=1;strokeColor=none;" vertex="1" parent="WIyWlLk6GJQsqaUBKTNV-1">
          <mxGeometry x="240" y="790" width="30" height="20" as="geometry" />
        </mxCell>
        <mxCell id="UWMuWFpmPmcmwEo4yvlY-14" value="&lt;font color=&quot;#ff0000&quot;&gt;N&lt;/font&gt;" style="text;html=1;align=center;verticalAlign=middle;resizable=0;points=[];autosize=1;strokeColor=none;" vertex="1" parent="WIyWlLk6GJQsqaUBKTNV-1">
          <mxGeometry x="480" y="790" width="20" height="20" as="geometry" />
        </mxCell>
        <mxCell id="UWMuWFpmPmcmwEo4yvlY-15" value="&lt;font color=&quot;#ff0000&quot;&gt;O&lt;/font&gt;" style="text;html=1;align=center;verticalAlign=middle;resizable=0;points=[];autosize=1;strokeColor=none;" vertex="1" parent="WIyWlLk6GJQsqaUBKTNV-1">
          <mxGeometry x="340" y="915" width="20" height="20" as="geometry" />
        </mxCell>
        <mxCell id="UWMuWFpmPmcmwEo4yvlY-16" value="&lt;font color=&quot;#ff0000&quot;&gt;P&lt;/font&gt;" style="text;html=1;align=center;verticalAlign=middle;resizable=0;points=[];autosize=1;strokeColor=none;" vertex="1" parent="WIyWlLk6GJQsqaUBKTNV-1">
          <mxGeometry x="340" y="1000" width="20" height="20" as="geometry" />
        </mxCell>
        <mxCell id="UWMuWFpmPmcmwEo4yvlY-17" value="&lt;font color=&quot;#ff0000&quot;&gt;Q&lt;/font&gt;" style="text;html=1;align=center;verticalAlign=middle;resizable=0;points=[];autosize=1;strokeColor=none;" vertex="1" parent="WIyWlLk6GJQsqaUBKTNV-1">
          <mxGeometry x="510" y="1020" width="20" height="20" as="geometry" />
        </mxCell>
        <mxCell id="UWMuWFpmPmcmwEo4yvlY-18" value="&lt;font color=&quot;#ff0000&quot;&gt;R&lt;/font&gt;" style="text;html=1;align=center;verticalAlign=middle;resizable=0;points=[];autosize=1;strokeColor=none;" vertex="1" parent="WIyWlLk6GJQsqaUBKTNV-1">
          <mxGeometry x="340" y="1075" width="20" height="20" as="geometry" />
        </mxCell>
        <mxCell id="UWMuWFpmPmcmwEo4yvlY-19" value="&lt;font color=&quot;#ff0000&quot;&gt;S&lt;/font&gt;" style="text;html=1;align=center;verticalAlign=middle;resizable=0;points=[];autosize=1;strokeColor=none;" vertex="1" parent="WIyWlLk6GJQsqaUBKTNV-1">
          <mxGeometry x="340" y="1160" width="20" height="20" as="geometry" />
        </mxCell>
        <mxCell id="UWMuWFpmPmcmwEo4yvlY-21" value="&lt;font color=&quot;#ff0000&quot;&gt;T&lt;/font&gt;" style="text;html=1;align=center;verticalAlign=middle;resizable=0;points=[];autosize=1;strokeColor=none;" vertex="1" parent="WIyWlLk6GJQsqaUBKTNV-1">
          <mxGeometry x="340" y="1250" width="20" height="20" as="geometry" />
        </mxCell>
        <mxCell id="UWMuWFpmPmcmwEo4yvlY-22" value="&lt;font color=&quot;#ff0000&quot;&gt;U&lt;/font&gt;" style="text;html=1;align=center;verticalAlign=middle;resizable=0;points=[];autosize=1;strokeColor=none;" vertex="1" parent="WIyWlLk6GJQsqaUBKTNV-1">
          <mxGeometry x="140" y="1220" width="20" height="20" as="geometry" />
        </mxCell>
        <mxCell id="UWMuWFpmPmcmwEo4yvlY-23" value="&lt;font color=&quot;#ff0000&quot;&gt;V&lt;/font&gt;" style="text;html=1;align=center;verticalAlign=middle;resizable=0;points=[];autosize=1;strokeColor=none;" vertex="1" parent="WIyWlLk6GJQsqaUBKTNV-1">
          <mxGeometry x="220" y="1310" width="20" height="20" as="geometry" />
        </mxCell>
        <mxCell id="UWMuWFpmPmcmwEo4yvlY-24" value="&lt;font color=&quot;#ff0000&quot;&gt;W&lt;/font&gt;" style="text;html=1;align=center;verticalAlign=middle;resizable=0;points=[];autosize=1;strokeColor=none;" vertex="1" parent="WIyWlLk6GJQsqaUBKTNV-1">
          <mxGeometry x="455" y="1320" width="30" height="20" as="geometry" />
        </mxCell>
        <mxCell id="UWMuWFpmPmcmwEo4yvlY-25" value="&lt;font color=&quot;#ff0000&quot;&gt;X&lt;/font&gt;" style="text;html=1;align=center;verticalAlign=middle;resizable=0;points=[];autosize=1;strokeColor=none;" vertex="1" parent="WIyWlLk6GJQsqaUBKTNV-1">
          <mxGeometry x="340" y="1420" width="20" height="20" as="geometry" />
        </mxCell>
        <mxCell id="UWMuWFpmPmcmwEo4yvlY-26" value="&lt;font color=&quot;#ff0000&quot;&gt;Y&lt;/font&gt;" style="text;html=1;align=center;verticalAlign=middle;resizable=0;points=[];autosize=1;strokeColor=none;" vertex="1" parent="WIyWlLk6GJQsqaUBKTNV-1">
          <mxGeometry x="340" y="1490" width="20" height="20" as="geometry" />
        </mxCell>
        <mxCell id="UWMuWFpmPmcmwEo4yvlY-27" value="&lt;font color=&quot;#ff0000&quot;&gt;Z&lt;/font&gt;" style="text;html=1;align=center;verticalAlign=middle;resizable=0;points=[];autosize=1;strokeColor=none;" vertex="1" parent="WIyWlLk6GJQsqaUBKTNV-1">
          <mxGeometry x="340" y="1550" width="20" height="20" as="geometry" />
        </mxCell>
        <mxCell id="UWMuWFpmPmcmwEo4yvlY-28" value="&lt;font color=&quot;#ff0000&quot;&gt;A1&lt;/font&gt;" style="text;html=1;align=center;verticalAlign=middle;resizable=0;points=[];autosize=1;strokeColor=none;" vertex="1" parent="WIyWlLk6GJQsqaUBKTNV-1">
          <mxGeometry x="400" y="1620" width="30" height="20" as="geometry" />
        </mxCell>
      </root>
    </mxGraphModel>
  </diagram>
</mxfile>
